<svg width="420" height="73" viewBox="0 0 420 73" fill="none" xmlns="http://www.w3.org/2000/svg">
<mask id="mask0_1_37" style="mask-type:luminance" maskUnits="userSpaceOnUse" x="0" y="0" width="420" height="73">
<path d="M420 0H0V73H420V0Z" fill="white"/>
</mask>
<g mask="url(#mask0_1_37)">
<path d="M34.7581 12.6659H8.08804V65.9909H34.7581C41.8263 65.9879 48.6039 63.178 53.6011 58.1783C58.5979 53.1785 61.4052 46.3986 61.4052 39.3294C61.4057 32.2597 58.5989 25.4793 53.6017 20.4792C48.6044 15.4791 41.8268 12.6686 34.7581 12.6659Z" fill="#194981"/>
<path d="M69.2723 26.0421L68.0639 31.2402L73.2611 32.4489L74.4696 27.2507L69.2723 26.0421Z" fill="#2AA4D7"/>
<path d="M74.4711 27.2524L73.2616 32.4509L68.0659 31.2416L74.4711 27.2524Z" fill="#205C84"/>
<path d="M54.5936 21.5337L41.3258 34.9253L21.2158 12.6658L16.1871 6H4.68372L8.08804 12.7257L28.0045 59.8782L61.4032 39.253C61.3942 32.7091 58.9694 26.3991 54.5936 21.5337Z" fill="#F4F9F5"/>
<path d="M61.6382 12.9534L61.8727 19.134L68.0524 18.8998L67.8179 12.7191L61.6382 12.9534Z" fill="#88448E"/>
<path d="M67.8264 12.7195L68.0599 18.9004L61.8797 19.1336L67.8264 12.7195Z" fill="#5A2B5E"/>
<path d="M63.1716 35.0987L61.7747 39.0794L65.7545 40.4768L67.1519 36.4961L63.1716 35.0987Z" fill="#98BC4D"/>
<path d="M64.5081 37.7622L61.7747 39.0794L65.7545 40.4768L67.1519 36.4962L64.5081 37.7622Z" fill="#266A43"/>
<path d="M53.7776 16.6524L54.4661 21.5232L59.3364 20.8344L58.6474 15.9636L53.7776 16.6524Z" fill="#E3A51A"/>
<path d="M56.616 18.6919L54.4661 21.5232L59.3364 20.8344L58.6474 15.9636L56.616 18.6919Z" fill="#D67C1C"/>
<path d="M61.9067 25.0342L61.4837 28.49L64.9391 28.913L65.362 25.4573L61.9067 25.0342Z" fill="#C40059"/>
<path d="M65.3565 25.4528L64.9335 28.9095L61.4772 28.4864L65.3565 25.4528Z" fill="#961137"/>
<path d="M70.1423 19.1411L69.8573 22.3064L73.0226 22.5913L73.3076 19.426L70.1423 19.1411Z" fill="#E09E4B"/>
<path d="M71.5757 20.8592L69.8573 22.3065L73.0226 22.5914L73.3076 19.4261L71.5757 20.8592Z" fill="#973235"/>
<path d="M54.5936 21.5337L41.3608 39.383L21.2158 12.6658L16.1871 6H4.68372L8.08804 12.7257L29.6489 55.3109L61.4032 39.253C61.3942 32.7091 58.9694 26.3991 54.5936 21.5337Z" fill="url(#paint0_linear_1_37)"/>
<path d="M84 15.251H99.7531C114.016 15.251 126.138 20.696 126.138 38.915C126.138 57.783 113.822 63.228 99.7531 63.228H84V15.251ZM100.467 52.789C110.256 52.789 113.174 48.768 113.174 39.043C113.174 30.161 110.19 26.012 100.339 26.012H96.9012V52.789H100.467Z" fill="white"/>
<path d="M127.5 53.891C127.5 46.11 134.693 41.38 148.96 40.732V40.278C148.96 38.589 148.135 37.359 145.135 37.359C141.115 37.359 137.355 39.043 134.437 41.12L129.188 33.859C132.365 31.007 137.809 27.829 147.144 27.829C157.388 27.829 161.47 32.625 161.47 42.416V54.799C161.47 58.951 161.73 61.477 162.444 63.228H149.732C149.213 61.593 148.951 59.887 148.956 58.171C146.104 61.738 142.539 63.748 137.4 63.748C132.427 63.748 127.5 60.714 127.5 53.891ZM148.96 52.207V47.278C142.737 47.472 140.013 49.094 140.013 51.753C140.013 53.437 141.251 54.229 142.865 54.229C146.038 54.217 147.854 53.243 148.956 52.207H148.96Z" fill="white"/>
<path d="M170.995 52.789V37.681H165.357V28.477H170.995V16.808H183.83V28.477H192.711V37.681H183.83V49.937C183.83 53.631 184.738 54.539 188.37 54.539C189.505 54.536 190.636 54.406 191.742 54.151V63.1C191.094 63.294 186.426 63.682 183.9 63.682C172.097 63.682 170.995 59.533 170.995 52.789Z" fill="white"/>
<path d="M194.981 53.891C194.981 46.11 202.175 41.38 216.442 40.732V40.278C216.442 38.589 215.617 37.359 212.616 37.359C208.597 37.359 204.837 39.043 201.923 41.12L196.669 33.859C199.847 31.007 205.291 27.829 214.626 27.829C224.87 27.829 228.951 32.625 228.951 42.416V54.799C228.951 58.951 229.211 61.477 229.925 63.228H217.218C216.698 61.593 216.435 59.887 216.438 58.171C213.586 61.738 210.021 63.748 204.882 63.748C199.909 63.748 194.981 60.714 194.981 53.891ZM216.442 52.207V47.278C210.219 47.472 207.495 49.094 207.495 51.753C207.495 53.437 208.733 54.229 210.347 54.229C213.52 54.217 215.336 53.243 216.438 52.207H216.442Z" fill="white"/>
<path d="M226.966 15H231.749L246.223 57.329H246.351L260.899 15H265.418L248.386 63.706H244.003L226.966 15Z" fill="white"/>
<path d="M269.355 16.135H274.139V20.981H269.355V16.135ZM269.488 28.976H274.027V63.508H269.488V28.976Z" fill="white"/>
<path d="M278.922 46.189C278.922 33.938 286.763 28.299 294.056 28.299C302.116 28.299 308.142 34.462 308.142 46.255V47.093H283.445C283.507 55.612 288.356 60.396 294.32 60.396C299.495 60.396 302.442 58.167 305.05 54.105L307.869 56.334C304.856 61.184 300.597 64.198 294.043 64.198C286 64.21 278.922 57.985 278.922 46.189ZM303.755 43.501C303.296 36.951 300.152 32.101 293.99 32.101C289.013 32.101 284.361 35.704 283.507 43.501H303.755Z" fill="white"/>
<path d="M308.666 28.955H313.383L318.232 46.056C319.47 50.448 320.263 53.334 321.443 57.787H321.575C322.813 52.871 323.474 50.448 324.72 46.056L329.437 28.955H333.564L338.348 46.387C339.586 50.58 340.246 53.267 341.361 57.787H341.493C342.731 53.135 343.391 50.712 344.637 46.519L349.681 28.955H354.072L343.457 63.488H339.264L331.468 35.122H331.336L323.399 63.488H319.272L308.666 28.955Z" fill="white"/>
<path d="M358.133 46.189C358.133 33.938 365.995 28.299 373.267 28.299C381.327 28.299 387.353 34.462 387.353 46.255V47.093H362.656C362.718 55.612 367.568 60.396 373.531 60.396C378.707 60.396 381.653 58.167 384.262 54.105L387.08 56.334C384.068 61.184 379.808 64.198 373.255 64.198C365.211 64.21 358.133 57.985 358.133 46.189ZM382.966 43.501C382.508 36.951 379.363 32.101 373.201 32.101C368.224 32.101 363.573 35.704 362.718 43.501H382.966Z" fill="white"/>
<path d="M395.871 28.955H400.39V35.77H400.522C403.209 31.51 407.402 28.299 414.216 28.299H415.021L414.558 32.493C414.558 32.493 413.32 32.427 413.184 32.427C407.551 32.427 403.093 35.572 400.39 41.012V63.488H395.871V28.955Z" fill="white"/>
</g>
<defs>
<linearGradient id="paint0_linear_1_37" x1="4.68372" y1="30.6555" x2="61.4032" y2="30.6555" gradientUnits="userSpaceOnUse">
<stop stop-color="#1F5DA6"/>
<stop offset="1" stop-color="#009DE0"/>
</linearGradient>
</defs>
</svg>
