<svg width="200" height="200" viewBox="0 0 200 200" fill="none" xmlns="http://www.w3.org/2000/svg">
<circle cx="100" cy="100" r="97" stroke="#266A43" stroke-width="6"/>
<path d="M99.9512 159.934C120.161 159.934 131.604 159.922 138.193 159.869C141.488 159.843 143.569 159.805 144.926 159.755C145.944 159.717 146.553 159.672 146.959 159.617L147.306 159.56C153.871 158.225 159.056 152.462 159.82 145.69L159.881 145.032V145.031C160.044 142.825 159.85 141.192 158.967 138.055L158.545 136.612C154.523 123.216 147.066 109.4 138.095 98.7051L137.222 97.6797L135.579 95.7793L135.551 95.7471L135.569 95.708L136.602 93.5264L136.603 93.5254C137.115 92.5017 137.663 91.1377 137.933 90.2979L138.029 89.9727C138.8 87.0661 138.732 83.0374 137.964 78.7178C137.244 74.6693 135.912 70.3705 134.087 66.5107L133.715 65.7451C127.714 53.6836 116.671 43.8513 105.825 40.8232L105.31 40.6836C104.06 40.3685 102.386 40.164 100.731 40.0938C99.2831 40.0323 97.8527 40.0736 96.7363 40.2334L96.2783 40.3096C89.2415 41.655 82.0873 45.979 76.1172 51.9795C70.1474 57.9796 65.3652 65.652 63.0684 73.6846H63.0693C61.3653 79.6552 60.8744 85.7277 61.7803 89.6045L61.8721 89.9727C62.0557 90.6453 62.5621 91.9652 63.0781 93.0684L63.2988 93.5254L63.2998 93.5264L64.333 95.708L64.3516 95.7471L64.3223 95.7793L62.6797 97.6797C54.3627 107.307 47.1236 119.861 42.7979 132.186L42.3887 133.378C41.3322 136.533 40.7466 138.37 40.4277 139.835C40.1492 141.114 40.074 142.109 40.0674 143.452L40.0684 144.051V144.052C40.0684 145.342 40.0856 146.129 40.1758 146.798C40.2433 147.298 40.3519 147.735 40.5254 148.267L40.7217 148.837V148.838C42.5339 154.134 46.9356 158.223 52.0947 159.449L52.5957 159.56H52.5967C52.9898 159.64 53.6186 159.704 54.9756 159.755C56.3322 159.805 58.4133 159.843 61.708 159.869C68.2976 159.922 79.741 159.934 99.9512 159.934ZM70.9395 72.2832C70.9335 72.282 70.9255 72.2802 70.917 72.2764L70.8916 72.2588C70.8772 72.2444 70.8703 72.2276 70.8672 72.2148C70.864 72.2018 70.8631 72.1885 70.8633 72.1768C70.8637 72.1535 70.8685 72.1261 70.875 72.0977C70.8882 72.04 70.9133 71.9641 70.9473 71.873C71.0156 71.6897 71.1242 71.437 71.2637 71.1348C71.543 70.5295 71.9473 69.7188 72.3994 68.8506C73.1903 67.3317 74.1305 65.6318 74.8105 64.5371L75.085 64.1074V64.1064C81.0532 55.1145 89.9628 48.4166 97.8262 47.0518V47.0508C98.9857 46.8439 100.737 46.8902 102.309 47.1416L102.969 47.2617C110.154 48.7204 118.497 55.0089 124.16 63.1279L124.699 63.9189C125.347 64.8954 126.475 66.9157 127.42 68.7129C127.892 69.6118 128.32 70.4561 128.619 71.0879C128.769 71.4035 128.886 71.6672 128.962 71.8584C129 71.9537 129.028 72.0334 129.044 72.0928C129.052 72.1219 129.057 72.1489 129.059 72.1719C129.059 72.1833 129.06 72.1963 129.058 72.209L129.037 72.2559L129.033 72.2588L129.001 72.2793C128.99 72.2827 128.981 72.2828 128.976 72.2832C128.961 72.2843 128.945 72.2831 128.931 72.2812C128.901 72.2775 128.863 72.2694 128.819 72.2578C128.731 72.2344 128.611 72.1955 128.469 72.1455C128.326 72.0954 128.158 72.0337 127.976 71.9639L127.389 71.7344C124.492 70.5724 119.8 69.5932 113.927 68.915L112.736 68.7832C110.44 68.5491 104.98 68.4492 99.4932 68.4727C94.3488 68.4946 89.1873 68.6251 86.5928 68.8535L86.1094 68.9004C80.6758 69.4939 75.6391 70.5407 72.6787 71.6709L72.1152 71.8975C71.8204 72.0271 71.5429 72.1339 71.332 72.2021C71.2268 72.2362 71.1362 72.2609 71.0684 72.2744C71.035 72.2811 71.0047 72.2854 70.9795 72.2861C70.9669 72.2865 70.9527 72.2859 70.9395 72.2832ZM112.604 91.0684C105.692 98.1829 94.6697 98.2939 87.6299 91.4014L87.2979 91.0684C83.9525 87.5845 82.2793 83.3924 82.2793 78.4268V76.2559L82.3389 76.25L84.9912 75.9688C90.9144 75.3307 100.964 75.1054 107.692 75.4277L108.992 75.499C110.454 75.587 112.338 75.7412 113.783 75.8721L115.051 75.9922L117.562 76.2734L117.622 76.2803V78.4268C117.622 83.2372 116.052 87.3213 112.912 90.7393L112.604 91.0684ZM102.002 110.414C96.9319 111.076 90.171 108.975 83.623 104.745L82.9902 104.329C78.1966 101.136 74.2701 97.4484 71.6797 93.9053C69.1726 90.476 67.9073 87.1687 68.3379 84.5723L68.3848 84.3232C68.6742 82.9229 69.5671 81.4626 70.7129 80.5049L70.9453 80.3203C71.3373 80.0236 72.2806 79.4707 73.166 78.9902C73.6096 78.7495 74.0404 78.5261 74.3828 78.3613C74.5539 78.279 74.7038 78.2105 74.8223 78.1621C74.8814 78.138 74.934 78.1185 74.9775 78.1045L75.0889 78.0791H75.0928C75.1163 78.0791 75.1341 78.0895 75.1436 78.0977C75.153 78.1057 75.1597 78.1151 75.1641 78.1221C75.1729 78.1362 75.1796 78.1539 75.1855 78.1709C75.1977 78.2057 75.2104 78.2546 75.2227 78.3135C75.2474 78.4325 75.2733 78.603 75.2998 78.8115C75.3528 79.2294 75.4061 79.8053 75.4414 80.4395C75.9403 87.8715 79.9108 94.799 86.0537 99.0312L86.6543 99.4326C88.7828 100.814 91.0353 101.826 93.7793 102.603L94.334 102.755H94.335C95.6757 103.128 97.7929 103.31 99.9355 103.304C101.944 103.298 103.967 103.128 105.386 102.799L105.661 102.731C116.125 100.014 123.524 91.3807 124.423 80.9385L124.46 80.4395C124.495 79.8057 124.543 79.2302 124.59 78.8125C124.613 78.6039 124.637 78.4334 124.659 78.3145C124.67 78.2554 124.682 78.2068 124.693 78.1719C124.699 78.1549 124.705 78.1373 124.714 78.123C124.718 78.116 124.725 78.1069 124.734 78.0986C124.744 78.0902 124.762 78.0791 124.785 78.0791C124.819 78.0791 124.861 78.0875 124.905 78.0996C124.951 78.112 125.005 78.1298 125.065 78.1523C125.186 78.1976 125.336 78.2623 125.506 78.3418C125.847 78.5012 126.273 78.7217 126.715 78.9639C127.488 79.3872 128.316 79.8813 128.828 80.2441L129.027 80.3916H129.028C130.218 81.3316 130.996 82.4633 131.371 83.751C131.746 85.0381 131.715 86.4772 131.293 88.0312C130.502 90.9438 128.334 94.2683 124.862 97.7773L124.15 98.4814C117.64 104.782 109.583 109.213 102.667 110.317L102.002 110.414ZM138.774 153.03C137.002 153.03 135.393 153.007 134.228 152.969C133.645 152.95 133.172 152.927 132.845 152.901C132.681 152.889 132.552 152.876 132.464 152.861C132.42 152.854 132.382 152.847 132.355 152.838C132.343 152.834 132.328 152.828 132.315 152.819C132.306 152.813 132.276 152.793 132.276 152.753C132.276 152.744 132.278 152.728 132.28 152.715C132.283 152.698 132.286 152.676 132.29 152.647C132.299 152.59 132.311 152.507 132.328 152.401C132.362 152.189 132.411 151.881 132.475 151.489C132.602 150.705 132.785 149.583 133.011 148.206L134.766 137.567C135.622 132.455 136.25 128.567 136.661 125.809C137.021 123.393 137.212 121.848 137.247 121.104L137.253 120.833V120.832C137.23 116.747 134.735 113.076 130.867 111.409L130.488 111.255L130.487 111.254C129.472 110.848 128.833 110.743 126.094 110.66L124.783 110.626L120.371 110.532L120.168 110.527L120.334 110.411L122.164 109.121C124.504 107.44 126.376 105.939 128.331 104.13L129.175 103.334L131.218 101.387L131.269 101.339L131.313 101.392L132.347 102.588C132.77 103.082 133.656 104.195 134.558 105.354L135.447 106.508C142.41 115.625 148.073 126.438 151.602 137.453L151.937 138.521C152.371 139.939 152.624 140.833 152.769 141.603C152.913 142.373 152.948 143.017 152.948 143.934C152.948 144.837 152.925 145.424 152.83 145.929C152.735 146.435 152.567 146.857 152.284 147.434H152.285C151.112 149.976 149.459 151.57 147.113 152.44L146.635 152.605H146.634C145.401 152.984 144.379 153.03 138.774 153.03ZM74.6758 152.857L72.0459 136.909C70.9779 130.495 70.3268 126.465 69.9629 123.958C69.7809 122.704 69.6707 121.83 69.6162 121.228C69.589 120.926 69.5755 120.692 69.5742 120.512C69.5736 120.422 69.5757 120.345 69.5811 120.278L69.6064 120.112V120.11C69.7391 119.64 70.0455 119.144 70.4316 118.72C70.8177 118.295 71.289 117.937 71.7578 117.745V117.744H71.7598C71.7791 117.737 71.8074 117.732 71.8379 117.728C71.8702 117.723 71.9119 117.718 71.9619 117.714C72.062 117.705 72.1997 117.697 72.373 117.689C72.7201 117.673 73.2145 117.658 73.8516 117.644C75.1268 117.615 76.976 117.59 79.3643 117.569C84.1411 117.528 91.0778 117.506 99.9033 117.506V117.505C111.311 117.493 118.225 117.499 122.365 117.543C124.435 117.565 125.813 117.597 126.713 117.641C127.163 117.662 127.495 117.687 127.734 117.716C127.972 117.744 128.126 117.776 128.216 117.815L128.215 117.816C129.2 118.22 129.956 119.062 130.244 120.015L130.296 120.207V120.208C130.315 120.296 130.321 120.436 130.314 120.631C130.308 120.828 130.289 121.088 130.256 121.417C130.189 122.076 130.066 123.019 129.877 124.318C129.593 126.267 129.159 129.017 128.539 132.809L127.855 136.956L125.227 152.857L125.217 152.913H74.6846L74.6758 152.857ZM62.6484 120.833C62.6368 121.424 62.8301 123.047 63.2412 125.809C63.5492 127.877 63.9789 130.581 64.5361 133.961L65.1357 137.567C65.8164 141.683 66.4388 145.453 66.8906 148.206C67.1166 149.583 67.2998 150.705 67.4268 151.489C67.4902 151.881 67.5398 152.189 67.5732 152.401C67.59 152.507 67.6027 152.59 67.6113 152.647C67.6156 152.676 67.6189 152.698 67.6211 152.715C67.6229 152.728 67.625 152.744 67.625 152.753C67.6249 152.793 67.5951 152.813 67.5859 152.819C67.5732 152.828 67.5588 152.834 67.5459 152.838C67.519 152.847 67.4821 152.854 67.4385 152.861C67.3498 152.876 67.2201 152.889 67.0566 152.901C66.7291 152.927 66.2563 152.95 65.6738 152.969C64.5081 153.007 62.8995 153.03 61.127 153.03C55.8719 153.03 54.6455 152.99 53.4971 152.673L53.2676 152.605H53.2666C48.5693 151.117 46.0734 146.567 47.167 141.479L47.2842 140.985C49.0022 134.383 52.3921 126.092 56.1377 119.222L56.8906 117.867C59.3131 113.62 63.4482 107.621 66.7236 103.6L67.3662 102.823L68.5635 101.393L68.6094 101.339L68.6602 101.387L70.7256 103.334H70.7266C71.8518 104.411 73.4923 105.864 74.3594 106.566C75.0106 107.076 76.0311 107.864 76.916 108.521L77.7373 109.121L79.5684 110.411L79.7334 110.527L79.5312 110.532L75.1182 110.626C71.7268 110.708 70.7914 110.772 69.833 111.098L69.4141 111.254L69.0352 111.411C65.1663 113.097 62.6711 116.725 62.6484 120.832V120.833Z" fill="#266A43" stroke="#88448E" stroke-width="0.133333"/>
<path d="M99.9504 138.59C100.522 138.59 101.138 138.389 101.679 138.057C102.152 137.767 102.563 137.378 102.835 136.94L102.943 136.751L102.944 136.75C103.07 136.508 103.186 136.202 103.27 135.906C103.354 135.609 103.405 135.329 103.405 135.138C103.405 134.567 103.204 133.952 102.872 133.412C102.581 132.939 102.192 132.528 101.754 132.257L101.564 132.149C100.996 131.86 100.455 131.717 99.9191 131.719C99.4503 131.722 98.9819 131.836 98.5002 132.066L98.2922 132.172L98.2912 132.173L98.1096 132.276C97.6902 132.54 97.3098 132.956 97.0236 133.431C96.6967 133.975 96.4964 134.591 96.4963 135.138C96.4963 135.71 96.6971 136.326 97.0295 136.866C97.3203 137.338 97.7096 137.75 98.1476 138.021L98.3381 138.129H98.3391C98.5805 138.255 98.8869 138.371 99.1828 138.455C99.4796 138.539 99.7599 138.59 99.9504 138.59Z" fill="#266A43" stroke="#88448E" stroke-width="0.133333"/>
</svg>
